<svg data-v-423bf9ae="" xmlns="http://www.w3.org/2000/svg" viewBox="0 0 635.4309795734897 163" class="iconAbove"><!----><!----><!----><g data-v-423bf9ae="" id="db68527b-33a4-4b53-bb71-806b4aae96c5" fill="#FFFFFF" transform="matrix(6.465516762982969,0,0,6.465516762982969,-2.3275918908145172,78.88361996656779)"><path d="M0.38 3.91L8.18 3.91L8.18 6.47L6.85 6.47L6.85 6.14L6.85 6.14Q6.85 5.81 6.78 5.63L6.78 5.63L6.78 5.63Q6.71 5.46 6.60 5.37L6.60 5.37L6.60 5.37Q6.48 5.28 6.33 5.27L6.33 5.27L6.33 5.27Q6.17 5.25 6.00 5.25L6.00 5.25L3.68 5.25L3.68 7.74L4.89 7.74L4.89 7.74Q5.06 7.74 5.18 7.73L5.18 7.73L5.18 7.73Q5.30 7.72 5.38 7.67L5.38 7.67L5.38 7.67Q5.46 7.62 5.51 7.50L5.51 7.50L5.51 7.50Q5.56 7.38 5.58 7.17L5.58 7.17L6.09 7.17L6.09 9.43L5.58 9.43L5.58 9.43Q5.56 9.24 5.51 9.13L5.51 9.13L5.51 9.13Q5.46 9.02 5.39 8.97L5.39 8.97L5.39 8.97Q5.31 8.91 5.19 8.89L5.19 8.89L5.19 8.89Q5.07 8.87 4.91 8.87L4.91 8.87L3.68 8.87L3.68 11.07L3.68 11.07Q3.68 11.25 3.72 11.36L3.72 11.36L3.72 11.36Q3.75 11.48 3.83 11.54L3.83 11.54L3.83 11.54Q3.92 11.59 4.05 11.61L4.05 11.61L4.05 11.61Q4.18 11.63 4.38 11.63L4.38 11.63L4.80 11.63L4.80 12.85L4.80 12.85Q4.50 12.85 4.23 12.85L4.23 12.85L4.23 12.85Q3.96 12.85 3.67 12.85L3.67 12.85L3.67 12.85Q3.38 12.84 3.06 12.84L3.06 12.84L3.06 12.84Q2.73 12.84 2.35 12.84L2.35 12.84L2.35 12.84Q2.02 12.84 1.75 12.84L1.75 12.84L1.75 12.84Q1.49 12.84 1.26 12.84L1.26 12.84L1.26 12.84Q1.03 12.84 0.82 12.85L0.82 12.85L0.82 12.85Q0.60 12.85 0.36 12.85L0.36 12.85L0.36 11.63L0.82 11.63L0.82 11.63Q1.00 11.63 1.13 11.61L1.13 11.61L1.13 11.61Q1.25 11.59 1.32 11.50L1.32 11.50L1.32 11.50Q1.39 11.42 1.42 11.27L1.42 11.27L1.42 11.27Q1.45 11.11 1.45 10.84L1.45 10.84L1.45 5.91L1.45 5.91Q1.45 5.68 1.44 5.53L1.44 5.53L1.44 5.53Q1.42 5.38 1.36 5.29L1.36 5.29L1.36 5.29Q1.30 5.20 1.17 5.16L1.17 5.16L1.17 5.16Q1.05 5.12 0.82 5.12L0.82 5.12L0.38 5.12L0.38 3.91ZM10.17 3.73L10.17 3.73L10.17 3.73Q10.42 3.73 10.63 3.78L10.63 3.78L10.63 3.78Q10.85 3.84 11.01 3.95L11.01 3.95L11.01 3.95Q11.17 4.05 11.26 4.21L11.26 4.21L11.26 4.21Q11.35 4.37 11.35 4.56L11.35 4.56L11.35 4.56Q11.35 4.94 11.03 5.17L11.03 5.17L11.03 5.17Q10.71 5.41 10.17 5.41L10.17 5.41L10.17 5.41Q9.63 5.41 9.31 5.20L9.31 5.20L9.31 5.20Q8.99 4.98 8.99 4.56L8.99 4.56L8.99 4.56Q8.99 4.18 9.31 3.95L9.31 3.95L9.31 3.95Q9.63 3.73 10.17 3.73ZM11.33 6.62L11.33 11.12L11.33 11.12Q11.33 11.33 11.36 11.45L11.36 11.45L11.36 11.45Q11.40 11.57 11.48 11.64L11.48 11.64L11.48 11.64Q11.57 11.70 11.72 11.72L11.72 11.72L11.72 11.72Q11.88 11.74 12.13 11.74L12.13 11.74L12.13 12.85L12.13 12.85Q11.90 12.85 11.62 12.85L11.62 12.85L11.62 12.85Q11.33 12.84 11.04 12.84L11.04 12.84L11.04 12.84Q10.75 12.84 10.48 12.84L10.48 12.84L10.48 12.84Q10.21 12.84 10.01 12.84L10.01 12.84L10.01 12.84Q9.76 12.84 9.55 12.84L9.55 12.84L9.55 12.84Q9.34 12.84 9.15 12.84L9.15 12.84L9.15 12.84Q8.96 12.84 8.77 12.85L8.77 12.85L8.77 12.85Q8.59 12.85 8.39 12.85L8.39 12.85L8.39 11.74L8.39 11.74Q8.68 11.74 8.85 11.73L8.85 11.73L8.85 11.73Q9.02 11.71 9.11 11.65L9.11 11.65L9.11 11.65Q9.19 11.58 9.22 11.46L9.22 11.46L9.22 11.46Q9.25 11.33 9.25 11.12L9.25 11.12L9.25 8.12L9.25 8.12Q9.25 7.98 9.20 7.90L9.20 7.90L9.20 7.90Q9.15 7.83 9.05 7.79L9.05 7.79L9.05 7.79Q8.95 7.75 8.79 7.75L8.79 7.75L8.79 7.75Q8.64 7.74 8.43 7.74L8.43 7.74L8.43 7.74Q8.43 7.46 8.43 7.19L8.43 7.19L8.43 7.19Q8.44 6.92 8.44 6.64L8.44 6.64L8.44 6.64Q8.72 6.64 8.98 6.65L8.98 6.65L8.98 6.65Q9.24 6.65 9.49 6.65L9.49 6.65L9.49 6.65Q9.93 6.65 10.39 6.64L10.39 6.64L10.39 6.64Q10.86 6.64 11.33 6.62L11.33 6.62ZM13.95 5.09L15.66 4.76L15.66 6.64L17.34 6.64L17.34 7.74L15.67 7.74L15.67 10.51L15.67 10.51Q15.67 10.81 15.69 11.04L15.69 11.04L15.69 11.04Q15.70 11.26 15.76 11.41L15.76 11.41L15.76 11.41Q15.83 11.55 15.94 11.63L15.94 11.63L15.94 11.63Q16.06 11.70 16.25 11.70L16.25 11.70L16.25 11.70Q16.71 11.70 16.71 11.07L16.71 11.07L17.47 10.97L17.47 11.19L17.47 11.19Q17.45 11.70 17.33 12.03L17.33 12.03L17.33 12.03Q17.20 12.37 16.96 12.59L16.96 12.59L16.96 12.59Q16.72 12.81 16.38 12.91L16.38 12.91L16.38 12.91Q16.04 13.01 15.60 13.01L15.60 13.01L15.60 13.01Q14.54 13.01 14.06 12.44L14.06 12.44L14.06 12.44Q13.58 11.88 13.58 10.88L13.58 10.88L13.58 7.74L12.54 7.74L12.54 6.72L12.54 6.72Q12.61 6.72 12.81 6.70L12.81 6.70L12.81 6.70Q13.00 6.69 13.21 6.67L13.21 6.67L13.21 6.67Q13.44 6.65 13.72 6.63L13.72 6.63L13.72 6.63Q13.72 6.61 13.74 6.50L13.74 6.50L13.74 6.50Q13.75 6.38 13.78 6.23L13.78 6.23L13.78 6.23Q13.81 6.07 13.84 5.89L13.84 5.89L13.84 5.89Q13.87 5.70 13.89 5.54L13.89 5.54L13.89 5.54Q13.92 5.37 13.94 5.25L13.94 5.25L13.94 5.25Q13.95 5.13 13.95 5.09L13.95 5.09ZM18.19 12.85L18.19 12.85L18.19 12.85Q18.19 12.84 18.19 12.75L18.19 12.75L18.19 12.75Q18.19 12.67 18.19 12.55L18.19 12.55L18.19 12.55Q18.19 12.43 18.19 12.30L18.19 12.30L18.19 12.30Q18.18 12.16 18.18 12.04L18.18 12.04L18.18 12.04Q18.18 11.93 18.18 11.85L18.18 11.85L18.18 11.85Q18.18 11.76 18.18 11.74L18.18 11.74L18.18 11.74Q18.48 11.74 18.66 11.73L18.66 11.73L18.66 11.73Q18.85 11.72 18.95 11.66L18.95 11.66L18.95 11.66Q19.05 11.61 19.09 11.50L19.09 11.50L19.09 11.50Q19.13 11.39 19.13 11.19L19.13 11.19L19.13 8.09L19.13 8.09Q19.13 7.96 19.07 7.89L19.07 7.89L19.07 7.89Q19.02 7.81 18.90 7.78L18.90 7.78L18.90 7.78Q18.79 7.75 18.62 7.75L18.62 7.75L18.62 7.75Q18.45 7.74 18.22 7.74L18.22 7.74L18.22 6.64L18.22 6.64Q18.52 6.64 18.79 6.65L18.79 6.65L18.79 6.65Q19.05 6.65 19.30 6.65L19.30 6.65L19.30 6.65Q19.77 6.65 20.21 6.64L20.21 6.64L20.21 6.64Q20.66 6.64 21.15 6.62L21.15 6.62L21.15 7.64L21.15 7.64Q21.34 7.42 21.59 7.22L21.59 7.22L21.59 7.22Q21.85 7.01 22.16 6.86L22.16 6.86L22.16 6.86Q22.46 6.71 22.83 6.61L22.83 6.61L22.83 6.61Q23.19 6.52 23.60 6.51L23.60 6.51L23.60 6.51Q24.18 6.51 24.62 6.65L24.62 6.65L24.62 6.65Q25.06 6.79 25.36 7.10L25.36 7.10L25.36 7.10Q25.66 7.41 25.81 7.90L25.81 7.90L25.81 7.90Q25.96 8.38 25.96 9.06L25.96 9.06L25.96 11.33L25.96 11.33Q25.96 11.50 26.01 11.59L26.01 11.59L26.01 11.59Q26.07 11.67 26.17 11.70L26.17 11.70L26.17 11.70Q26.28 11.74 26.43 11.74L26.43 11.74L26.43 11.74Q26.59 11.74 26.80 11.74L26.80 11.74L26.80 12.85L26.80 12.85Q26.58 12.85 26.39 12.85L26.39 12.85L26.39 12.85Q26.19 12.85 25.98 12.85L25.98 12.85L25.98 12.85Q25.76 12.84 25.53 12.84L25.53 12.84L25.53 12.84Q25.29 12.84 25.00 12.84L25.00 12.84L25.00 12.84Q24.47 12.84 23.99 12.84L23.99 12.84L23.99 12.84Q23.52 12.85 23.04 12.85L23.04 12.85L23.04 11.74L23.04 11.74Q23.35 11.74 23.52 11.73L23.52 11.73L23.52 11.73Q23.69 11.71 23.76 11.66L23.76 11.66L23.76 11.66Q23.84 11.60 23.85 11.50L23.85 11.50L23.85 11.50Q23.86 11.40 23.86 11.22L23.86 11.22L23.86 9.35L23.86 9.35Q23.86 8.98 23.81 8.69L23.81 8.69L23.81 8.69Q23.75 8.40 23.63 8.21L23.63 8.21L23.63 8.21Q23.50 8.02 23.28 7.92L23.28 7.92L23.28 7.92Q23.06 7.82 22.74 7.82L22.74 7.82L22.74 7.82Q22.46 7.82 22.24 7.88L22.24 7.88L22.24 7.88Q22.02 7.94 21.84 8.03L21.84 8.03L21.84 8.03Q21.67 8.12 21.54 8.24L21.54 8.24L21.54 8.24Q21.41 8.37 21.32 8.49L21.32 8.49L21.32 8.49Q21.25 8.71 21.23 8.97L21.23 8.97L21.23 8.97Q21.21 9.24 21.21 9.54L21.21 9.54L21.21 11.22L21.21 11.22Q21.21 11.42 21.27 11.53L21.27 11.53L21.27 11.53Q21.32 11.63 21.44 11.68L21.44 11.68L21.44 11.68Q21.55 11.72 21.74 11.73L21.74 11.73L21.74 11.73Q21.92 11.74 22.18 11.74L22.18 11.74L22.18 12.85L22.18 12.85Q21.93 12.85 21.70 12.85L21.70 12.85L21.70 12.85Q21.46 12.85 21.22 12.85L21.22 12.85L21.22 12.85Q20.97 12.84 20.69 12.84L20.69 12.84L20.69 12.84Q20.41 12.84 20.08 12.84L20.08 12.84L20.08 12.84Q19.51 12.84 19.07 12.84L19.07 12.84L19.07 12.84Q18.63 12.85 18.19 12.85ZM34.74 9.96L34.37 10.01L29.72 10.01L29.72 10.01Q29.73 10.99 30.20 11.45L30.20 11.45L30.20 11.45Q30.67 11.92 31.49 11.92L31.49 11.92L31.49 11.92Q32.07 11.92 32.47 11.65L32.47 11.65L32.47 11.65Q32.87 11.38 33.04 11.01L33.04 11.01L34.60 11.13L34.60 11.13Q34.33 12.07 33.48 12.54L33.48 12.54L33.48 12.54Q32.63 13.01 31.34 13.01L31.34 13.01L31.34 13.01Q30.39 13.01 29.70 12.76L29.70 12.76L29.70 12.76Q29.00 12.52 28.53 12.10L28.53 12.10L28.53 12.10Q28.07 11.68 27.84 11.08L27.84 11.08L27.84 11.08Q27.61 10.48 27.61 9.77L27.61 9.77L27.61 9.77Q27.61 9.01 27.87 8.39L27.87 8.39L27.87 8.39Q28.12 7.78 28.59 7.35L28.59 7.35L28.59 7.35Q29.07 6.92 29.73 6.69L29.73 6.69L29.73 6.69Q30.39 6.45 31.21 6.45L31.21 6.45L31.21 6.45Q31.99 6.45 32.64 6.68L32.64 6.68L32.64 6.68Q33.29 6.90 33.76 7.34L33.76 7.34L33.76 7.34Q34.22 7.78 34.48 8.44L34.48 8.44L34.48 8.44Q34.74 9.09 34.74 9.96L34.74 9.96ZM32.79 9.12L32.79 9.13L32.79 9.08L32.79 9.08Q32.79 9.06 32.78 9.03L32.78 9.03L32.78 9.03Q32.78 9.01 32.78 8.98L32.78 8.98L32.78 8.98Q32.72 8.26 32.33 7.86L32.33 7.86L32.33 7.86Q31.94 7.46 31.30 7.46L31.30 7.46L31.30 7.46Q30.60 7.46 30.20 7.90L30.20 7.90L30.20 7.90Q29.80 8.35 29.74 9.12L29.74 9.12L32.79 9.12ZM41.41 6.69L41.41 8.52L40.33 8.52L40.33 8.52Q40.22 8.03 39.82 7.73L39.82 7.73L39.82 7.73Q39.41 7.44 38.74 7.42L38.74 7.42L38.74 7.42Q38.47 7.42 38.27 7.47L38.27 7.47L38.27 7.47Q38.08 7.53 37.95 7.62L37.95 7.62L37.95 7.62Q37.83 7.71 37.77 7.83L37.77 7.83L37.77 7.83Q37.71 7.95 37.71 8.08L37.71 8.08L37.71 8.08Q37.71 8.24 37.82 8.36L37.82 8.36L37.82 8.36Q37.92 8.48 38.11 8.59L38.11 8.59L38.11 8.59Q38.30 8.69 38.58 8.78L38.58 8.78L38.58 8.78Q38.86 8.87 39.21 8.98L39.21 8.98L39.21 8.98Q39.81 9.14 40.27 9.32L40.27 9.32L40.27 9.32Q40.74 9.50 41.05 9.74L41.05 9.74L41.05 9.74Q41.37 9.98 41.54 10.30L41.54 10.30L41.54 10.30Q41.70 10.62 41.70 11.07L41.70 11.07L41.70 11.07Q41.70 11.58 41.48 11.95L41.48 11.95L41.48 11.95Q41.26 12.31 40.90 12.55L40.90 12.55L40.90 12.55Q40.54 12.79 40.09 12.90L40.09 12.90L40.09 12.90Q39.63 13.01 39.14 13.01L39.14 13.01L39.14 13.01Q38.45 13.01 37.98 12.83L37.98 12.83L37.98 12.83Q37.51 12.66 37.21 12.30L37.21 12.30L37.18 12.84L37.18 12.84Q36.86 12.84 36.56 12.82L36.56 12.82L36.56 12.82Q36.25 12.80 35.94 12.80L35.94 12.80L35.94 10.86L37.17 10.86L37.17 10.86Q37.20 11.17 37.34 11.40L37.34 11.40L37.34 11.40Q37.48 11.63 37.70 11.79L37.70 11.79L37.70 11.79Q37.92 11.94 38.20 12.02L38.20 12.02L38.20 12.02Q38.48 12.09 38.79 12.09L38.79 12.09L38.79 12.09Q39.27 12.09 39.58 11.92L39.58 11.92L39.58 11.92Q39.89 11.74 39.89 11.43L39.89 11.43L39.89 11.43Q39.89 11.22 39.72 11.08L39.72 11.08L39.72 11.08Q39.55 10.93 39.28 10.81L39.28 10.81L39.28 10.81Q39.00 10.68 38.64 10.57L38.64 10.57L38.64 10.57Q38.28 10.45 37.90 10.32L37.90 10.32L37.90 10.32Q37.44 10.15 37.07 9.98L37.07 9.98L37.07 9.98Q36.71 9.81 36.45 9.59L36.45 9.59L36.45 9.59Q36.20 9.37 36.06 9.08L36.06 9.08L36.06 9.08Q35.92 8.78 35.92 8.37L35.92 8.37L35.92 8.37Q35.92 7.95 36.08 7.60L36.08 7.60L36.08 7.60Q36.24 7.26 36.55 7.02L36.55 7.02L36.55 7.02Q36.86 6.77 37.31 6.64L37.31 6.64L37.31 6.64Q37.76 6.51 38.34 6.51L38.34 6.51L38.34 6.51Q38.94 6.51 39.46 6.66L39.46 6.66L39.46 6.66Q39.98 6.82 40.28 7.12L40.28 7.12L40.28 7.12Q40.28 7.08 40.30 7.00L40.30 7.00L40.30 7.00Q40.32 6.91 40.34 6.82L40.34 6.82L40.34 6.82Q40.37 6.72 40.39 6.60L40.39 6.60L40.39 6.60Q40.59 6.62 40.78 6.64L40.78 6.64L40.78 6.64Q40.95 6.65 41.12 6.67L41.12 6.67L41.12 6.67Q41.30 6.68 41.41 6.69L41.41 6.69ZM48.47 6.69L48.47 8.52L47.39 8.52L47.39 8.52Q47.28 8.03 46.87 7.73L46.87 7.73L46.87 7.73Q46.46 7.44 45.79 7.42L45.79 7.42L45.79 7.42Q45.52 7.42 45.33 7.47L45.33 7.47L45.33 7.47Q45.13 7.53 45.01 7.62L45.01 7.62L45.01 7.62Q44.88 7.71 44.83 7.83L44.83 7.83L44.83 7.83Q44.77 7.95 44.77 8.08L44.77 8.08L44.77 8.08Q44.77 8.24 44.87 8.36L44.87 8.36L44.87 8.36Q44.97 8.48 45.17 8.59L45.17 8.59L45.17 8.59Q45.36 8.69 45.63 8.78L45.63 8.78L45.63 8.78Q45.91 8.87 46.27 8.98L46.27 8.98L46.27 8.98Q46.87 9.14 47.33 9.32L47.33 9.32L47.33 9.32Q47.79 9.50 48.11 9.74L48.11 9.74L48.11 9.74Q48.43 9.98 48.59 10.30L48.59 10.30L48.59 10.30Q48.75 10.62 48.75 11.07L48.75 11.07L48.75 11.07Q48.75 11.58 48.54 11.95L48.54 11.95L48.54 11.95Q48.32 12.31 47.96 12.55L47.96 12.55L47.96 12.55Q47.60 12.79 47.14 12.90L47.14 12.90L47.14 12.90Q46.68 13.01 46.20 13.01L46.20 13.01L46.20 13.01Q45.50 13.01 45.03 12.83L45.03 12.83L45.03 12.83Q44.56 12.66 44.26 12.30L44.26 12.30L44.24 12.84L44.24 12.84Q43.91 12.84 43.61 12.82L43.61 12.82L43.61 12.82Q43.31 12.80 42.99 12.80L42.99 12.80L42.99 10.86L44.23 10.86L44.23 10.86Q44.26 11.17 44.40 11.40L44.40 11.40L44.40 11.40Q44.54 11.63 44.75 11.79L44.75 11.79L44.75 11.79Q44.97 11.94 45.25 12.02L45.25 12.02L45.25 12.02Q45.53 12.09 45.85 12.09L45.85 12.09L45.85 12.09Q46.33 12.09 46.63 11.92L46.63 11.92L46.63 11.92Q46.94 11.74 46.94 11.43L46.94 11.43L46.94 11.43Q46.94 11.22 46.77 11.08L46.77 11.08L46.77 11.08Q46.61 10.93 46.33 10.81L46.33 10.81L46.33 10.81Q46.05 10.68 45.69 10.57L45.69 10.57L45.69 10.57Q45.34 10.45 44.95 10.32L44.95 10.32L44.95 10.32Q44.50 10.15 44.13 9.98L44.13 9.98L44.13 9.98Q43.76 9.81 43.51 9.59L43.51 9.59L43.51 9.59Q43.25 9.37 43.11 9.08L43.11 9.08L43.11 9.08Q42.98 8.78 42.98 8.37L42.98 8.37L42.98 8.37Q42.98 7.95 43.14 7.60L43.14 7.60L43.14 7.60Q43.30 7.26 43.61 7.02L43.61 7.02L43.61 7.02Q43.91 6.77 44.37 6.64L44.37 6.64L44.37 6.64Q44.82 6.51 45.39 6.51L45.39 6.51L45.39 6.51Q45.99 6.51 46.51 6.66L46.51 6.66L46.51 6.66Q47.03 6.82 47.33 7.12L47.33 7.12L47.33 7.12Q47.34 7.08 47.36 7.00L47.36 7.00L47.36 7.00Q47.37 6.91 47.39 6.82L47.39 6.82L47.39 6.82Q47.42 6.72 47.44 6.60L47.44 6.60L47.44 6.60Q47.65 6.62 47.84 6.64L47.84 6.64L47.84 6.64Q48.00 6.65 48.18 6.67L48.18 6.67L48.18 6.67Q48.35 6.68 48.47 6.69L48.47 6.69ZM53.20 3.91L61.00 3.91L61.00 6.47L59.67 6.47L59.67 6.14L59.67 6.14Q59.67 5.81 59.60 5.63L59.60 5.63L59.60 5.63Q59.53 5.46 59.42 5.37L59.42 5.37L59.42 5.37Q59.30 5.28 59.15 5.27L59.15 5.27L59.15 5.27Q58.99 5.25 58.82 5.25L58.82 5.25L56.51 5.25L56.51 7.74L57.71 7.74L57.71 7.74Q57.88 7.74 58.00 7.73L58.00 7.73L58.00 7.73Q58.12 7.72 58.20 7.67L58.20 7.67L58.20 7.67Q58.28 7.62 58.33 7.50L58.33 7.50L58.33 7.50Q58.38 7.38 58.40 7.17L58.40 7.17L58.91 7.17L58.91 9.43L58.40 9.43L58.40 9.43Q58.38 9.24 58.33 9.13L58.33 9.13L58.33 9.13Q58.28 9.02 58.21 8.97L58.21 8.97L58.21 8.97Q58.13 8.91 58.01 8.89L58.01 8.89L58.01 8.89Q57.89 8.87 57.73 8.87L57.73 8.87L56.51 8.87L56.51 11.07L56.51 11.07Q56.51 11.25 56.54 11.36L56.54 11.36L56.54 11.36Q56.57 11.48 56.66 11.54L56.66 11.54L56.66 11.54Q56.74 11.59 56.87 11.61L56.87 11.61L56.87 11.61Q57.00 11.63 57.20 11.63L57.20 11.63L57.62 11.63L57.62 12.85L57.62 12.85Q57.33 12.85 57.05 12.85L57.05 12.85L57.05 12.85Q56.78 12.85 56.49 12.85L56.49 12.85L56.49 12.85Q56.20 12.84 55.88 12.84L55.88 12.84L55.88 12.84Q55.56 12.84 55.17 12.84L55.17 12.84L55.17 12.84Q54.84 12.84 54.57 12.84L54.57 12.84L54.57 12.84Q54.31 12.84 54.08 12.84L54.08 12.84L54.08 12.84Q53.85 12.84 53.64 12.85L53.64 12.85L53.64 12.85Q53.42 12.85 53.18 12.85L53.18 12.85L53.18 11.63L53.64 11.63L53.64 11.63Q53.83 11.63 53.95 11.61L53.95 11.61L53.95 11.61Q54.07 11.59 54.14 11.50L54.14 11.50L54.14 11.50Q54.22 11.42 54.24 11.27L54.24 11.27L54.24 11.27Q54.27 11.11 54.27 10.84L54.27 10.84L54.27 5.91L54.27 5.91Q54.27 5.68 54.26 5.53L54.26 5.53L54.26 5.53Q54.24 5.38 54.18 5.29L54.18 5.29L54.18 5.29Q54.12 5.20 53.99 5.16L53.99 5.16L53.99 5.16Q53.87 5.12 53.64 5.12L53.64 5.12L53.20 5.12L53.20 3.91ZM62.36 6.65L62.36 6.65L62.36 6.65Q63.53 6.64 64.08 6.62L64.08 6.62L64.08 7.93L64.08 7.93Q64.34 7.23 64.92 6.86L64.92 6.86L64.92 6.86Q65.50 6.50 66.34 6.50L66.34 6.50L66.34 6.50Q66.50 6.50 66.66 6.51L66.66 6.51L66.66 6.51Q66.82 6.53 66.99 6.56L66.99 6.56L66.99 8.62L66.99 8.62Q66.92 8.61 66.83 8.61L66.83 8.61L66.83 8.61Q66.74 8.61 66.68 8.61L66.68 8.61L66.68 8.61Q66.57 8.61 66.43 8.62L66.43 8.62L66.43 8.62Q66.29 8.62 66.19 8.63L66.19 8.63L66.19 8.63Q66.12 8.34 65.95 8.22L65.95 8.22L65.95 8.22Q65.78 8.09 65.49 8.09L65.49 8.09L65.49 8.09Q65.23 8.09 65.01 8.20L65.01 8.20L65.01 8.20Q64.79 8.30 64.62 8.49L64.62 8.49L64.62 8.49Q64.46 8.67 64.35 8.94L64.35 8.94L64.35 8.94Q64.24 9.21 64.21 9.54L64.21 9.54L64.21 9.54Q64.19 9.61 64.18 9.85L64.18 9.85L64.18 9.85Q64.16 10.09 64.16 10.37L64.16 10.37L64.16 10.37Q64.15 10.66 64.15 10.92L64.15 10.92L64.15 10.92Q64.15 11.18 64.15 11.30L64.15 11.30L64.15 11.30Q64.15 11.48 64.20 11.57L64.20 11.57L64.20 11.57Q64.25 11.66 64.37 11.70L64.37 11.70L64.37 11.70Q64.50 11.74 64.70 11.74L64.70 11.74L64.70 11.74Q64.89 11.74 65.18 11.74L65.18 11.74L65.18 12.85L65.18 12.85Q64.91 12.85 64.64 12.85L64.64 12.85L64.64 12.85Q64.38 12.84 64.11 12.84L64.11 12.84L64.11 12.84Q63.83 12.84 63.53 12.84L63.53 12.84L63.53 12.84Q63.23 12.84 62.87 12.84L62.87 12.84L62.87 12.84Q62.59 12.84 62.36 12.84L62.36 12.84L62.36 12.84Q62.13 12.84 61.93 12.84L61.93 12.84L61.93 12.84Q61.73 12.84 61.53 12.85L61.53 12.85L61.53 12.85Q61.34 12.85 61.13 12.85L61.13 12.85L61.13 11.74L61.13 11.74Q61.42 11.74 61.59 11.73L61.59 11.73L61.59 11.73Q61.76 11.72 61.83 11.66L61.83 11.66L61.83 11.66Q61.97 11.63 62.01 11.52L62.01 11.52L62.01 11.52Q62.06 11.40 62.06 11.14L62.06 11.14L62.06 8.13L62.06 8.13Q62.06 7.98 62.01 7.90L62.01 7.90L62.01 7.90Q61.95 7.82 61.84 7.79L61.84 7.79L61.84 7.79Q61.74 7.75 61.56 7.75L61.56 7.75L61.56 7.75Q61.39 7.74 61.15 7.74L61.15 7.74L61.15 6.64L61.15 6.64Q61.27 6.64 62.36 6.65ZM74.79 9.96L74.42 10.01L69.77 10.01L69.77 10.01Q69.78 10.99 70.25 11.45L70.25 11.45L70.25 11.45Q70.72 11.92 71.54 11.92L71.54 11.92L71.54 11.92Q72.13 11.92 72.53 11.65L72.53 11.65L72.53 11.65Q72.93 11.38 73.10 11.01L73.10 11.01L74.66 11.13L74.66 11.13Q74.38 12.07 73.53 12.54L73.53 12.54L73.53 12.54Q72.68 13.01 71.39 13.01L71.39 13.01L71.39 13.01Q70.44 13.01 69.75 12.76L69.75 12.76L69.75 12.76Q69.05 12.52 68.58 12.10L68.58 12.10L68.58 12.10Q68.12 11.68 67.89 11.08L67.89 11.08L67.89 11.08Q67.66 10.48 67.66 9.77L67.66 9.77L67.66 9.77Q67.66 9.01 67.92 8.39L67.92 8.39L67.92 8.39Q68.17 7.78 68.65 7.35L68.65 7.35L68.65 7.35Q69.12 6.92 69.78 6.69L69.78 6.69L69.78 6.69Q70.44 6.45 71.26 6.45L71.26 6.45L71.26 6.45Q72.04 6.45 72.69 6.68L72.69 6.68L72.69 6.68Q73.34 6.90 73.81 7.34L73.81 7.34L73.81 7.34Q74.27 7.78 74.53 8.44L74.53 8.44L74.53 8.44Q74.79 9.09 74.79 9.96L74.79 9.96ZM72.84 9.12L72.84 9.13L72.84 9.08L72.84 9.08Q72.84 9.06 72.83 9.03L72.83 9.03L72.83 9.03Q72.83 9.01 72.83 8.98L72.83 8.98L72.83 8.98Q72.77 8.26 72.38 7.86L72.38 7.86L72.38 7.86Q71.99 7.46 71.35 7.46L71.35 7.46L71.35 7.46Q70.65 7.46 70.25 7.90L70.25 7.90L70.25 7.90Q69.85 8.35 69.79 9.12L69.79 9.12L72.84 9.12ZM82.49 8.74L82.49 10.99L82.49 10.99Q82.49 11.27 82.51 11.43L82.51 11.43L82.51 11.43Q82.52 11.59 82.58 11.66L82.58 11.66L82.58 11.66Q82.64 11.73 82.74 11.74L82.74 11.74L82.74 11.74Q82.84 11.76 83.02 11.76L83.02 11.76L83.35 11.76L83.35 12.85L83.35 12.85Q83.30 12.85 83.11 12.85L83.11 12.85L83.11 12.85Q82.93 12.85 82.71 12.85L82.71 12.85L82.71 12.85Q82.49 12.84 82.29 12.84L82.29 12.84L82.29 12.84Q82.09 12.84 82.00 12.84L82.00 12.84L82.00 12.84Q81.81 12.84 81.66 12.85L81.66 12.85L81.66 12.85Q81.50 12.85 81.35 12.85L81.35 12.85L81.35 12.85Q81.20 12.86 81.05 12.86L81.05 12.86L81.05 12.86Q80.89 12.87 80.70 12.87L80.70 12.87L80.49 11.98L80.49 11.98Q80.34 12.22 80.14 12.41L80.14 12.41L80.14 12.41Q79.93 12.60 79.65 12.73L79.65 12.73L79.65 12.73Q79.36 12.87 78.98 12.94L78.98 12.94L78.98 12.94Q78.61 13.01 78.12 13.01L78.12 13.01L78.12 13.01Q77.53 13.01 77.09 12.85L77.09 12.85L77.09 12.85Q76.64 12.70 76.34 12.44L76.34 12.44L76.34 12.44Q76.04 12.18 75.89 11.83L75.89 11.83L75.89 11.83Q75.74 11.48 75.74 11.08L75.74 11.08L75.74 11.08Q75.74 10.62 75.94 10.25L75.94 10.25L75.94 10.25Q76.15 9.88 76.52 9.63L76.52 9.63L76.52 9.63Q76.90 9.37 77.44 9.23L77.44 9.23L77.44 9.23Q77.98 9.09 78.67 9.09L78.67 9.09L78.67 9.09Q79.11 9.09 79.56 9.14L79.56 9.14L79.56 9.14Q80.00 9.19 80.40 9.30L80.40 9.30L80.40 8.51L80.40 8.51Q80.40 7.99 80.04 7.68L80.04 7.68L80.04 7.68Q79.68 7.38 78.93 7.38L78.93 7.38L78.93 7.38Q77.68 7.38 77.44 8.37L77.44 8.37L76.32 8.26L76.36 6.90L76.36 6.90Q76.46 6.85 76.69 6.77L76.69 6.77L76.69 6.77Q76.92 6.70 77.28 6.63L77.28 6.63L77.28 6.63Q77.64 6.56 78.10 6.50L78.10 6.50L78.10 6.50Q78.57 6.45 79.13 6.45L79.13 6.45L79.13 6.45Q80.02 6.45 80.66 6.58L80.66 6.58L80.66 6.58Q81.29 6.71 81.70 6.98L81.70 6.98L81.70 6.98Q82.11 7.25 82.30 7.69L82.30 7.69L82.30 7.69Q82.49 8.12 82.49 8.74L82.49 8.74ZM79.26 9.80L79.26 9.80L79.26 9.80Q78.54 9.80 78.15 10.10L78.15 10.10L78.15 10.10Q77.75 10.39 77.75 10.92L77.75 10.92L77.75 10.92Q77.75 11.18 77.84 11.33L77.84 11.33L77.84 11.33Q77.93 11.48 78.08 11.62L78.08 11.62L78.08 11.62Q78.24 11.76 78.45 11.84L78.45 11.84L78.45 11.84Q78.67 11.92 78.91 11.92L78.91 11.92L78.91 11.92Q79.25 11.92 79.52 11.83L79.52 11.83L79.52 11.83Q79.80 11.74 79.99 11.56L79.99 11.56L79.99 11.56Q80.19 11.39 80.29 11.18L80.29 11.18L80.29 11.18Q80.40 10.98 80.40 10.66L80.40 10.66L80.40 9.95L80.40 9.95Q80.11 9.87 79.83 9.84L79.83 9.84L79.83 9.84Q79.55 9.80 79.26 9.80ZM83.79 12.85L83.79 11.74L83.79 11.74Q84.08 11.73 84.26 11.71L84.26 11.71L84.26 11.71Q84.44 11.68 84.54 11.62L84.54 11.62L84.54 11.62Q84.64 11.56 84.68 11.46L84.68 11.46L84.68 11.46Q84.72 11.35 84.72 11.19L84.72 11.19L84.72 5.45L84.72 5.45Q84.72 5.28 84.65 5.19L84.65 5.19L84.65 5.19Q84.59 5.09 84.47 5.05L84.47 5.05L84.47 5.05Q84.35 5.01 84.18 5.01L84.18 5.01L84.18 5.01Q84.02 5.00 83.82 5.00L83.82 5.00L83.82 3.91L83.82 3.91Q83.85 3.91 83.93 3.91L83.93 3.91L83.93 3.91Q84.01 3.91 84.12 3.91L84.12 3.91L84.12 3.91Q84.23 3.91 84.36 3.91L84.36 3.91L84.36 3.91Q84.49 3.90 84.62 3.90L84.62 3.90L84.62 3.90Q84.94 3.90 85.31 3.90L85.31 3.90L85.31 3.90Q85.71 3.90 86.05 3.89L86.05 3.89L86.05 3.89Q86.40 3.88 86.80 3.87L86.80 3.87L86.80 9.56L88.29 8.40L88.29 8.40Q88.45 8.28 88.60 8.15L88.60 8.15L88.60 8.15Q88.76 8.01 88.88 7.90L88.88 7.90L88.88 7.90Q89.00 7.79 89.07 7.72L89.07 7.72L89.07 7.72Q89.14 7.64 89.14 7.63L89.14 7.63L89.14 7.63Q89.14 7.61 89.05 7.60L89.05 7.60L89.05 7.60Q88.96 7.59 88.84 7.59L88.84 7.59L88.84 7.59Q88.72 7.58 88.60 7.58L88.60 7.58L88.60 7.58Q88.48 7.58 88.42 7.58L88.42 7.58L88.43 6.64L88.43 6.64Q88.88 6.66 89.21 6.66L89.21 6.66L89.21 6.66Q89.54 6.66 89.85 6.66L89.85 6.66L89.85 6.66Q90.06 6.66 90.28 6.66L90.28 6.66L90.28 6.66Q90.49 6.66 90.73 6.66L90.73 6.66L90.73 6.66Q90.97 6.66 91.23 6.65L91.23 6.65L91.23 6.65Q91.49 6.65 91.80 6.64L91.80 6.64L91.80 7.66L91.61 7.66L91.61 7.66Q91.53 7.66 91.46 7.65L91.46 7.65L91.46 7.65Q91.39 7.65 91.36 7.65L91.36 7.65L91.36 7.65Q91.20 7.65 91.08 7.67L91.08 7.67L91.08 7.67Q90.97 7.69 90.85 7.75L90.85 7.75L90.85 7.75Q90.73 7.80 90.60 7.89L90.60 7.89L90.60 7.89Q90.46 7.98 90.27 8.13L90.27 8.13L88.83 9.24L90.75 11.24L90.75 11.24Q91.01 11.54 91.23 11.63L91.23 11.63L91.23 11.63Q91.44 11.73 91.73 11.74L91.73 11.74L92.11 11.74L92.11 12.85L92.11 12.85Q91.88 12.85 91.59 12.85L91.59 12.85L91.59 12.85Q91.30 12.84 91.02 12.84L91.02 12.84L91.02 12.84Q90.75 12.84 90.52 12.84L90.52 12.84L90.52 12.84Q90.30 12.84 90.21 12.84L90.21 12.84L90.21 12.84Q89.65 12.84 89.21 12.84L89.21 12.84L89.21 12.84Q88.76 12.85 88.30 12.85L88.30 12.85L88.30 11.74L88.30 11.74Q88.35 11.74 88.41 11.74L88.41 11.74L88.41 11.74Q88.48 11.74 88.54 11.73L88.54 11.73L88.54 11.73Q88.59 11.73 88.64 11.73L88.64 11.73L88.64 11.73Q88.69 11.72 88.71 11.72L88.71 11.72L88.71 11.72Q88.89 11.70 88.89 11.65L88.89 11.65L88.89 11.65Q88.89 11.61 88.84 11.55L88.84 11.55L88.84 11.55Q88.79 11.50 88.71 11.43L88.71 11.43L87.39 10.04L86.80 10.45L86.80 11.27L86.80 11.27Q86.80 11.41 86.82 11.50L86.82 11.50L86.82 11.50Q86.84 11.59 86.93 11.64L86.93 11.64L86.93 11.64Q87.01 11.69 87.18 11.71L87.18 11.71L87.18 11.71Q87.35 11.74 87.64 11.74L87.64 11.74L87.64 12.85L87.64 12.85Q87.43 12.85 87.19 12.85L87.19 12.85L87.19 12.85Q86.95 12.85 86.68 12.85L86.68 12.85L86.68 12.85Q86.42 12.84 86.15 12.84L86.15 12.84L86.15 12.84Q85.88 12.84 85.63 12.84L85.63 12.84L85.63 12.84Q85.45 12.84 85.22 12.84L85.22 12.84L85.22 12.84Q84.98 12.84 84.73 12.84L84.73 12.84L84.73 12.84Q84.48 12.84 84.23 12.85L84.23 12.85L84.23 12.85Q83.99 12.85 83.79 12.85L83.79 12.85ZM98.36 6.69L98.36 8.52L97.28 8.52L97.28 8.52Q97.17 8.03 96.76 7.73L96.76 7.73L96.76 7.73Q96.35 7.44 95.68 7.42L95.68 7.42L95.68 7.42Q95.41 7.42 95.21 7.47L95.21 7.47L95.21 7.47Q95.02 7.53 94.90 7.62L94.90 7.62L94.90 7.62Q94.77 7.71 94.72 7.83L94.72 7.83L94.72 7.83Q94.66 7.95 94.66 8.08L94.66 8.08L94.66 8.08Q94.66 8.24 94.76 8.36L94.76 8.36L94.76 8.36Q94.86 8.48 95.05 8.59L95.05 8.59L95.05 8.59Q95.25 8.69 95.52 8.78L95.52 8.78L95.52 8.78Q95.80 8.87 96.15 8.98L96.15 8.98L96.15 8.98Q96.76 9.14 97.22 9.32L97.22 9.32L97.22 9.32Q97.68 9.50 98.00 9.74L98.00 9.74L98.00 9.74Q98.31 9.98 98.48 10.30L98.48 10.30L98.48 10.30Q98.64 10.62 98.64 11.07L98.64 11.07L98.64 11.07Q98.64 11.58 98.42 11.95L98.42 11.95L98.42 11.95Q98.21 12.31 97.85 12.55L97.85 12.55L97.85 12.55Q97.49 12.79 97.03 12.90L97.03 12.90L97.03 12.90Q96.57 13.01 96.09 13.01L96.09 13.01L96.09 13.01Q95.39 13.01 94.92 12.83L94.92 12.83L94.92 12.83Q94.45 12.66 94.15 12.30L94.15 12.30L94.12 12.84L94.12 12.84Q93.80 12.84 93.50 12.82L93.50 12.82L93.50 12.82Q93.19 12.80 92.88 12.80L92.88 12.80L92.88 10.86L94.12 10.86L94.12 10.86Q94.14 11.17 94.28 11.40L94.28 11.40L94.28 11.40Q94.42 11.63 94.64 11.79L94.64 11.79L94.64 11.79Q94.86 11.94 95.14 12.02L95.14 12.02L95.14 12.02Q95.42 12.09 95.74 12.09L95.74 12.09L95.74 12.09Q96.22 12.09 96.52 11.92L96.52 11.92L96.52 11.92Q96.83 11.74 96.83 11.43L96.83 11.43L96.83 11.43Q96.83 11.22 96.66 11.08L96.66 11.08L96.66 11.08Q96.50 10.93 96.22 10.81L96.22 10.81L96.22 10.81Q95.94 10.68 95.58 10.57L95.58 10.57L95.58 10.57Q95.22 10.45 94.84 10.32L94.84 10.32L94.84 10.32Q94.38 10.15 94.02 9.98L94.02 9.98L94.02 9.98Q93.65 9.81 93.40 9.59L93.40 9.59L93.40 9.59Q93.14 9.37 93.00 9.08L93.00 9.08L93.00 9.08Q92.87 8.78 92.87 8.37L92.87 8.37L92.87 8.37Q92.87 7.95 93.03 7.60L93.03 7.60L93.03 7.60Q93.19 7.26 93.50 7.02L93.50 7.02L93.50 7.02Q93.80 6.77 94.25 6.64L94.25 6.64L94.25 6.64Q94.71 6.51 95.28 6.51L95.28 6.51L95.28 6.51Q95.88 6.51 96.40 6.66L96.40 6.66L96.40 6.66Q96.92 6.82 97.22 7.12L97.22 7.12L97.22 7.12Q97.23 7.08 97.24 7.00L97.24 7.00L97.24 7.00Q97.26 6.91 97.28 6.82L97.28 6.82L97.28 6.82Q97.31 6.72 97.33 6.60L97.33 6.60L97.33 6.60Q97.54 6.62 97.73 6.64L97.73 6.64L97.73 6.64Q97.89 6.65 98.06 6.67L98.06 6.67L98.06 6.67Q98.24 6.68 98.36 6.69L98.36 6.69Z"></path></g><!----><g data-v-423bf9ae="" id="2d58ab16-367c-45b2-a1ae-fc32915d448c" transform="matrix(1.291248263135968,0,0,1.291248263135968,253.9375868432016,-19.412410519895545)" stroke="none" fill="#FFFFFF"><path d="M92.407 18.564H81.503a4.097 4.097 0 0 0-4.093 4.093v1.633h-4.192v-8.057h-1.5c-4.777 0-9.074 2.868-11.783 7.344-1.904-4.922-6.676-8.427-12.261-8.427-1.57 0-3.088.284-4.502.804a13.06 13.06 0 0 0-4.484-.804c-5.738 0-10.797 3.773-12.519 9.14H22.59v-1.633a4.097 4.097 0 0 0-4.093-4.093H7.593A4.097 4.097 0 0 0 3.5 22.657V46.8a4.097 4.097 0 0 0 4.093 4.093h10.904A4.097 4.097 0 0 0 22.59 46.8v-1.633h2.325V83.35a1.5 1.5 0 1 0 3 0V45.167h29.048v1.718l.011.004a1.44 1.44 0 0 0-.118.546 9.94 9.94 0 0 1-.148 1.648 9.935 9.935 0 0 1-8.128 8.128 9.95 9.95 0 0 1-1.648.148 1.5 1.5 0 1 0 0 3c6.402 0 11.717-4.684 12.735-10.802.091-.545.144-1.102.168-1.667l.01.003.119-1.765v-11.54c0-.644.036-1.283.102-1.912a13.06 13.06 0 0 0 .729-3.719c1.559-5.141 5.166-8.878 9.423-9.598V83.872h3V45.167h4.192V46.8a4.097 4.097 0 0 0 4.093 4.093h10.904A4.097 4.097 0 0 0 96.5 46.8V22.657a4.097 4.097 0 0 0-4.093-4.093zM19.59 46.8c0 .603-.49 1.093-1.093 1.093H7.593c-.603 0-1.093-.49-1.093-1.093V22.657c0-.603.49-1.093 1.093-1.093h10.904c.603 0 1.093.49 1.093 1.093V46.8zm28.083-28.65c5.599 0 10.154 4.555 10.154 10.154 0 5.426-4.277 9.872-9.637 10.141v-1.071c2.256-2.362 3.651-5.554 3.651-9.07 0-4.072-1.86-7.716-4.774-10.131.201-.012.402-.023.606-.023zm-8.986 0c5.599 0 10.154 4.555 10.154 10.154 0 5.426-4.277 9.872-9.637 10.141V24.417H29.306c1.546-3.72 5.236-6.267 9.381-6.267zM22.59 42.167V27.29h2.871l-.026.127h10.768v13.85l1.346.139a11 11 0 0 0 1.137.053c2.366 0 4.583-.637 6.503-1.735v1.543l1.346.139a11 11 0 0 0 1.137.053c3.623 0 6.909-1.473 9.29-3.851v4.559H22.59zm54.82 0h-4.192V27.29h4.192v14.877zM93.5 46.8c0 .603-.49 1.093-1.093 1.093H81.503c-.603 0-1.093-.49-1.093-1.093V22.657c0-.603.49-1.093 1.093-1.093h10.904c.603 0 1.093.49 1.093 1.093V46.8z"></path></g><!----></svg>